<svg xmlns="http://www.w3.org/2000/svg" viewBox="0 0 1600 900" fill="none">
  <defs>
    <linearGradient id="bg3" x1="0" y1="0" x2="1" y2="1">
      <stop offset="0" stop-color="#1a1326"/><stop offset="1" stop-color="#0a0b10"/>
    </linearGradient>
    <linearGradient id="ac3" x1="0" y1="1" x2="0" y2="0">
      <stop offset="0" stop-color="#a23e6e"/><stop offset="1" stop-color="#c75c8f"/>
    </linearGradient>
  </defs>
  <rect width="1600" height="900" fill="url(#bg3)"/>
  <g stroke="#ffffff" stroke-opacity="0.04"><path d="M0 225H1600M0 450H1600M0 675H1600"/></g>
  <text x="80" y="120" fill="#c75c8f" font-family="monospace" font-size="30" letter-spacing="6">POWER BI · TIME INTELLIGENCE</text>
  <!-- seasonal bell of bars -->
  <g fill="url(#ac3)">
    <rect x="150" y="640" width="80" height="100" rx="6"/>
    <rect x="260" y="600" width="80" height="140" rx="6"/>
    <rect x="370" y="500" width="80" height="240" rx="6"/>
    <rect x="480" y="360" width="80" height="380" rx="6"/>
    <rect x="590" y="320" width="80" height="420" rx="6"/>
    <rect x="700" y="330" width="80" height="410" rx="6"/>
    <rect x="810" y="380" width="80" height="360" rx="6"/>
    <rect x="920" y="520" width="80" height="220" rx="6"/>
    <rect x="1030" y="600" width="80" height="140" rx="6"/>
  </g>
  <!-- electric trend line -->
  <path d="M190 660 L300 630 L410 540 L520 400 L630 360 L740 370 L850 420 L960 560 L1070 640" stroke="#f0c419" stroke-width="6" fill="none" stroke-linecap="round"/>
  <!-- donut: bike type mix -->
  <g transform="translate(1330 380)">
    <circle r="120" fill="none" stroke="#3a2740" stroke-width="48"/>
    <circle r="120" fill="none" stroke="#c75c8f" stroke-width="48" stroke-dasharray="565 754" transform="rotate(-90)"/>
    <text x="0" y="10" text-anchor="middle" fill="#f3d7e4" font-family="monospace" font-size="34">75%</text>
  </g>
  <text x="1240" y="650" fill="#9aa0b5" font-family="monospace" font-size="26">standard vs electric</text>
</svg>
